<?xml version="1.0" standalone="no"?>
<!DOCTYPE svg PUBLIC "-//W3C//DTD SVG 20010904//EN"
 "http://www.w3.org/TR/2001/REC-SVG-20010904/DTD/svg10.dtd">
<svg version="1.0" xmlns="http://www.w3.org/2000/svg"
 width="210.000000pt" height="192.000000pt" viewBox="0 0 210.000000 192.000000"
 preserveAspectRatio="xMidYMid meet">
<metadata>
Created by potrace 1.10, written by Peter Selinger 2001-2011
</metadata>
<g transform="translate(0.000000,192.000000) scale(0.100000,-0.100000)"
fill="#000000" stroke="none">
<path d="M670 1651 c-124 -46 -189 -110 -241 -241 -11 -27 -15 -114 -17 -385
-3 -313 -1 -356 15 -405 41 -129 117 -205 248 -252 44 -15 91 -17 395 -17 309
0 351 2 398 18 29 10 58 23 65 30 6 6 16 11 22 11 17 0 103 88 123 124 50 94
51 110 51 476 0 309 -2 351 -18 398 -10 29 -23 58 -30 65 -6 6 -11 16 -11 22
0 17 -88 103 -124 123 -95 50 -109 51 -481 50 -299 -1 -356 -3 -395 -17z m801
-95 c66 -29 122 -88 149 -157 19 -48 20 -69 17 -402 -3 -399 -3 -400 -79 -473
-87 -83 -100 -85 -501 -81 -393 3 -396 3 -468 73 -23 21 -52 63 -65 93 -24 53
-24 56 -24 401 0 345 0 348 24 401 28 64 83 119 146 147 42 19 66 20 396 21
350 1 352 1 405 -23z"/>
<path d="M1038 1377 c-13 -18 -14 -47 -8 -162 3 -77 5 -145 3 -152 -7 -19 -21
-20 -168 -13 -149 7 -185 -1 -185 -40 0 -39 36 -47 185 -40 147 7 161 6 168
-13 2 -7 0 -75 -3 -152 -6 -115 -5 -144 8 -162 18 -29 46 -29 64 0 12 18 13
49 8 162 -7 147 -6 161 13 167 7 3 75 1 152 -2 149 -7 185 1 185 40 0 39 -36
47 -185 40 -77 -3 -145 -5 -152 -2 -19 6 -20 20 -13 167 5 113 4 144 -8 163
-18 28 -46 28 -64 -1z"/>
</g>
</svg>
