<?xml version="1.0" standalone="no"?>
<!DOCTYPE svg PUBLIC "-//W3C//DTD SVG 20010904//EN"
 "http://www.w3.org/TR/2001/REC-SVG-20010904/DTD/svg10.dtd">
<svg version="1.0" xmlns="http://www.w3.org/2000/svg"
 width="186.000000pt" height="180.000000pt" viewBox="0 0 186.000000 180.000000"
 preserveAspectRatio="xMidYMid meet">
<metadata>
Created by potrace 1.10, written by Peter Selinger 2001-2011
</metadata>
<g transform="translate(0.000000,180.000000) scale(0.100000,-0.100000)"
fill="#000000" stroke="none">
<path d="M775 1588 c-68 -11 -172 -47 -225 -79 -8 -5 -22 -12 -30 -16 -18 -8
-20 -10 -83 -62 -40 -34 -108 -107 -135 -147 -19 -28 -33 -50 -38 -64 -3 -8
-12 -28 -19 -45 -56 -127 -74 -247 -56 -372 7 -49 20 -106 28 -128 19 -52 43
-106 54 -125 5 -8 12 -22 16 -30 8 -18 10 -20 62 -83 34 -40 107 -108 147
-135 28 -19 50 -33 64 -38 8 -3 29 -12 45 -19 129 -56 238 -72 373 -54 53 7
106 18 117 26 11 7 29 13 40 13 11 0 29 7 39 15 23 17 98 20 127 4 11 -6 41
-14 67 -19 72 -14 166 -41 180 -53 10 -8 19 -5 34 11 20 19 21 25 9 64 -7 24
-18 66 -26 93 -7 28 -18 70 -25 95 -21 79 -24 138 -6 165 9 13 16 32 16 42 0
10 6 27 13 38 8 11 19 64 26 117 19 136 3 242 -56 378 -8 19 -19 42 -24 50 -5
8 -12 22 -16 30 -8 18 -10 20 -62 83 -34 40 -107 108 -147 135 -29 20 -50 33
-64 38 -8 3 -23 10 -32 15 -63 33 -229 70 -308 67 -25 0 -72 -5 -105 -10z
m228 -96 c37 -4 72 -13 79 -20 7 -7 22 -12 34 -12 13 0 25 -4 28 -9 4 -5 27
-20 54 -32 26 -13 81 -57 122 -99 42 -41 86 -96 99 -122 12 -27 27 -50 32 -54
5 -3 9 -15 9 -27 0 -12 7 -31 15 -41 8 -11 15 -40 15 -64 0 -24 4 -51 8 -60
18 -34 -18 -258 -49 -312 -31 -54 -34 -133 -6 -185 6 -11 14 -36 18 -55 4 -19
13 -49 20 -67 17 -41 7 -51 -34 -34 -48 19 -125 41 -184 53 -45 8 -59 7 -95
-10 -93 -42 -126 -51 -213 -59 -49 -4 -97 -7 -105 -5 -112 16 -169 30 -210 53
-8 4 -35 18 -60 31 -60 29 -190 161 -219 220 -12 27 -27 50 -32 54 -5 3 -9 15
-9 28 0 12 -5 27 -12 34 -35 35 -35 349 0 384 7 7 12 22 12 34 0 13 4 25 9 28
5 4 20 27 32 54 30 61 160 191 221 221 27 12 50 27 54 32 3 5 15 9 27 9 12 0
31 7 41 15 11 8 40 15 65 16 25 0 54 3 63 7 19 8 70 6 171 -6z"/>
</g>
</svg>
