<?xml version="1.0" standalone="no"?>
<!DOCTYPE svg PUBLIC "-//W3C//DTD SVG 20010904//EN"
 "http://www.w3.org/TR/2001/REC-SVG-20010904/DTD/svg10.dtd">
<svg version="1.0" xmlns="http://www.w3.org/2000/svg"
 width="186.000000pt" height="180.000000pt" viewBox="0 0 186.000000 180.000000"
 preserveAspectRatio="xMidYMid meet">
<metadata>
Created by potrace 1.10, written by Peter Selinger 2001-2011
</metadata>
<g transform="translate(0.000000,180.000000) scale(0.100000,-0.100000)"
fill="#000000" stroke="none">
<path d="M740 1595 c-19 -8 -44 -14 -55 -14 -11 -1 -63 -22 -115 -48 -79 -40
-110 -63 -185 -138 -50 -49 -100 -110 -113 -135 -12 -25 -26 -52 -31 -60 -31
-59 -41 -85 -41 -106 0 -13 -7 -41 -16 -63 -12 -30 -14 -65 -11 -152 5 -133
26 -227 68 -299 4 -8 19 -35 31 -60 30 -58 190 -218 248 -248 25 -12 52 -27
60 -31 80 -46 169 -64 310 -64 141 0 230 18 310 64 8 4 35 19 60 31 58 30 218
190 248 248 12 25 27 52 31 60 46 80 64 169 64 310 0 141 -18 230 -64 310 -4
8 -19 35 -31 60 -30 58 -190 218 -248 248 -25 12 -52 27 -60 31 -75 43 -168
63 -305 66 -83 2 -131 -1 -155 -10z m283 -90 c20 -8 47 -15 60 -15 14 0 30 -7
37 -15 7 -8 21 -15 31 -15 68 0 309 -241 309 -309 0 -10 7 -24 15 -31 8 -7 15
-22 15 -34 0 -11 7 -43 15 -70 29 -95 14 -239 -37 -376 -21 -56 -66 -121 -127
-183 -54 -57 -162 -137 -183 -137 -5 0 -22 -6 -36 -14 -86 -45 -281 -58 -392
-26 -92 26 -193 84 -263 150 -68 64 -147 168 -147 195 0 7 -6 26 -14 42 -63
128 -63 318 0 446 8 16 14 35 14 42 0 24 77 128 137 186 86 84 157 125 257
150 22 5 46 14 55 19 27 16 214 12 254 -5z"/>
<path d="M610 961 c-36 -23 -49 -42 -49 -71 0 -29 13 -48 49 -71 23 -16 28
-15 63 2 35 19 37 22 37 69 0 47 -2 50 -37 69 -35 17 -40 18 -63 2z"/>
<path d="M1107 959 c-35 -19 -37 -22 -37 -69 0 -47 2 -50 38 -69 34 -17 39
-18 62 -2 68 44 68 99 0 142 -24 16 -28 15 -63 -2z"/>
<path d="M637 655 c-22 -31 -12 -50 49 -92 82 -58 112 -68 204 -68 95 0 130
12 208 73 41 33 51 58 36 96 -10 25 -54 19 -83 -11 -84 -88 -260 -86 -330 3
-24 31 -61 30 -84 -1z"/>
</g>
</svg>
