<?xml version="1.0" standalone="no"?>
<!DOCTYPE svg PUBLIC "-//W3C//DTD SVG 20010904//EN"
 "http://www.w3.org/TR/2001/REC-SVG-20010904/DTD/svg10.dtd">
<svg version="1.0" xmlns="http://www.w3.org/2000/svg"
 width="210.000000pt" height="192.000000pt" viewBox="0 0 210.000000 192.000000"
 preserveAspectRatio="xMidYMid meet">
<metadata>
Created by potrace 1.10, written by Peter Selinger 2001-2011
</metadata>
<g transform="translate(0.000000,192.000000) scale(0.100000,-0.100000)"
fill="#000000" stroke="none">
<path d="M610 1445 c-14 -8 -31 -14 -39 -15 -16 0 -85 -53 -124 -95 -27 -29
-49 -70 -81 -149 -22 -53 -21 -183 1 -233 9 -21 25 -58 37 -82 26 -58 190
-225 396 -401 35 -30 75 -66 90 -79 106 -98 139 -96 256 15 59 57 190 173 222
197 57 43 238 234 253 267 35 77 43 108 47 189 4 85 1 99 -44 196 -22 48 -88
126 -130 152 -65 42 -108 53 -198 52 -76 0 -98 -4 -136 -24 -25 -14 -53 -27
-62 -31 -9 -3 -29 -24 -44 -45 -15 -21 -33 -39 -40 -39 -7 0 -35 22 -62 49
-70 70 -124 91 -231 91 -56 -1 -95 -6 -111 -15z m240 -98 c39 -23 87 -71 101
-102 5 -11 13 -27 18 -35 5 -8 12 -23 15 -32 3 -10 15 -18 26 -18 11 0 23 8
26 18 3 9 10 24 15 32 5 8 13 24 18 35 15 34 67 85 108 107 30 17 55 21 124
20 98 0 133 -16 200 -89 56 -61 79 -122 79 -212 0 -74 -31 -181 -52 -181 -4 0
-8 -5 -8 -11 0 -18 -82 -107 -160 -173 -41 -35 -92 -81 -113 -101 -21 -20 -75
-69 -120 -107 -45 -39 -83 -75 -85 -79 -5 -12 -59 -12 -64 0 -2 4 -41 41 -88
81 -47 40 -94 82 -105 94 -11 12 -68 63 -127 113 -168 146 -218 229 -218 363
0 57 6 90 21 126 24 54 89 128 134 152 63 35 193 34 255 -1z"/>
</g>
</svg>
