<?xml version="1.0" standalone="no"?>
<!DOCTYPE svg PUBLIC "-//W3C//DTD SVG 20010904//EN"
 "http://www.w3.org/TR/2001/REC-SVG-20010904/DTD/svg10.dtd">
<svg version="1.0" xmlns="http://www.w3.org/2000/svg"
 width="210.000000pt" height="192.000000pt" viewBox="0 0 210.000000 192.000000"
 preserveAspectRatio="xMidYMid meet">
<metadata>
Created by potrace 1.10, written by Peter Selinger 2001-2011
</metadata>
<g transform="translate(0.000000,192.000000) scale(0.100000,-0.100000)"
fill="#000000" stroke="none">
<path d="M682 1363 l-302 -305 2 -351 3 -352 234 -3 c207 -2 236 0 253 14 16
16 18 35 18 218 1 222 2 226 68 260 56 29 104 14 151 -46 20 -24 21 -39 21
-225 0 -141 3 -202 12 -211 17 -17 469 -17 486 0 9 9 12 101 12 354 l0 343
-306 305 c-222 223 -311 306 -327 305 -15 -1 -120 -100 -325 -306z m601 -70
l266 -267 2 -289 c1 -158 -1 -291 -5 -294 -3 -3 -76 -6 -163 -6 l-158 0 -5
174 c-5 189 -13 220 -67 271 -82 77 -208 77 -288 1 -57 -55 -60 -64 -65 -262
l-5 -184 -158 0 c-87 0 -160 3 -164 6 -3 4 -5 136 -4 295 l2 288 262 266 c144
146 267 266 273 267 6 0 131 -119 277 -266z"/>
</g>
</svg>
