<?xml version="1.0" standalone="no"?>
<!DOCTYPE svg PUBLIC "-//W3C//DTD SVG 20010904//EN"
 "http://www.w3.org/TR/2001/REC-SVG-20010904/DTD/svg10.dtd">
<svg version="1.0" xmlns="http://www.w3.org/2000/svg"
 width="186.000000pt" height="180.000000pt" viewBox="0 0 186.000000 180.000000"
 preserveAspectRatio="xMidYMid meet">
<metadata>
Created by potrace 1.10, written by Peter Selinger 2001-2011
</metadata>
<g transform="translate(0.000000,180.000000) scale(0.100000,-0.100000)"
fill="#000000" stroke="none">
<path d="M470 1504 c-25 -9 -52 -20 -60 -25 -8 -5 -24 -13 -35 -18 -12 -5 -46
-34 -77 -65 -53 -53 -73 -86 -108 -176 -19 -48 -25 -204 -9 -244 16 -40 56
-125 72 -151 20 -34 216 -226 332 -325 61 -52 128 -111 150 -132 68 -62 133
-108 155 -108 26 0 86 45 200 149 85 78 149 135 205 181 88 73 243 239 261
280 45 99 49 115 49 215 0 99 -4 116 -48 212 -19 44 -131 163 -152 163 -7 0
-18 7 -25 15 -7 8 -21 15 -32 15 -10 0 -30 7 -43 16 -42 27 -199 11 -265 -27
-8 -5 -24 -13 -35 -18 -25 -11 -60 -44 -81 -76 -23 -35 -41 -31 -86 20 -35 40
-69 61 -153 95 -50 20 -164 22 -215 4z m206 -96 c58 -22 136 -88 155 -131 5
-12 13 -29 18 -37 5 -8 12 -23 15 -32 3 -10 15 -18 26 -18 11 0 23 8 26 18 3
9 10 24 15 32 5 8 13 25 18 37 19 43 97 109 155 131 91 35 144 29 251 -26 89
-45 165 -183 165 -296 0 -52 -27 -147 -49 -169 -6 -6 -11 -17 -11 -24 0 -18
-191 -211 -300 -304 -47 -39 -125 -108 -173 -153 -48 -45 -92 -81 -96 -81 -5
0 -44 32 -87 70 -43 39 -104 93 -135 120 -149 133 -215 192 -238 216 -68 68
-111 118 -111 130 0 7 -6 20 -14 28 -23 26 -46 108 -46 165 0 115 76 252 165
298 106 55 161 60 251 26z"/>
</g>
</svg>
