<?xml version="1.0" standalone="no"?>
<!DOCTYPE svg PUBLIC "-//W3C//DTD SVG 20010904//EN"
 "http://www.w3.org/TR/2001/REC-SVG-20010904/DTD/svg10.dtd">
<svg version="1.0" xmlns="http://www.w3.org/2000/svg"
 width="666.000000pt" height="210.000000pt" viewBox="0 0 666.000000 210.000000"
 preserveAspectRatio="xMidYMid meet">
<metadata>
Created by potrace 1.10, written by Peter Selinger 2001-2011
</metadata>
<g transform="translate(0.000000,210.000000) scale(0.100000,-0.100000)"
fill="#000000" stroke="none">
<path d="M498 1757 c-80 -55 -158 -136 -181 -187 -4 -8 -16 -28 -27 -45 -11
-16 -21 -34 -23 -40 -2 -5 -10 -26 -17 -45 -22 -59 -24 -157 -4 -204 33 -77
140 -167 181 -152 18 7 16 51 -2 66 -8 7 -15 18 -15 25 0 7 -7 18 -15 25 -22
18 -21 185 2 254 41 127 105 226 144 226 20 0 21 -4 15 -97 -3 -54 -8 -276
-12 -493 -6 -412 -11 -486 -38 -559 -19 -50 -8 -76 27 -65 26 8 106 82 118
109 5 11 13 27 18 35 5 8 16 38 25 65 14 44 16 116 16 562 l0 511 -43 21 c-63
30 -112 27 -169 -12z"/>
<path d="M2238 1768 c-1 -12 -2 -68 -2 -123 l-1 -100 -90 4 c-103 3 -110 0
-121 -66 -4 -29 -2 -43 7 -49 7 -4 52 -7 100 -5 l87 3 -4 -216 c-5 -190 -7
-221 -25 -258 -67 -140 -109 -173 -109 -84 0 49 -17 88 -57 131 -36 39 -148
125 -163 125 -6 0 -15 10 -19 23 -7 17 -4 28 15 48 13 14 24 29 24 34 0 5 7
16 16 26 20 22 23 101 5 123 -19 22 -103 22 -139 -1 -48 -32 -92 -86 -94 -118
-3 -58 3 -100 18 -111 16 -13 19 -60 3 -69 -5 -4 -15 -17 -20 -28 -5 -12 -18
-35 -29 -52 -11 -16 -24 -41 -30 -53 -15 -34 -93 -154 -114 -174 -21 -22 -30
-22 -50 -2 -13 13 -16 43 -16 172 0 86 5 197 10 245 8 64 7 94 -1 110 -14 26
-59 66 -75 67 -7 0 -24 7 -40 14 -15 8 -30 14 -33 12 -3 -1 -23 -10 -43 -19
-20 -10 -53 -36 -73 -60 -35 -40 -105 -173 -105 -200 -1 -26 -37 -121 -48
-125 -19 -6 -22 37 -14 188 9 149 4 190 -22 190 -9 0 -31 8 -50 17 -34 16 -37
16 -56 -2 -19 -17 -20 -30 -20 -356 0 -396 1 -403 77 -415 76 -11 90 2 98 93
4 43 12 87 18 98 6 11 14 36 18 55 18 90 122 319 166 367 6 7 13 18 15 25 3 7
12 9 22 5 16 -6 17 -15 12 -70 -4 -34 -7 -154 -8 -267 -1 -191 1 -208 20 -247
27 -52 35 -57 94 -56 37 1 56 7 88 33 36 29 130 140 130 154 0 3 19 34 43 69
23 34 55 89 72 121 16 32 35 60 41 63 15 5 130 -114 155 -161 28 -52 25 -105
-7 -140 -24 -25 -32 -28 -69 -23 -28 3 -57 15 -83 37 -40 32 -41 32 -66 14
-14 -11 -26 -23 -26 -28 0 -5 -7 -17 -16 -27 -27 -30 -11 -64 42 -89 37 -19
64 -23 147 -23 115 -1 159 13 235 78 43 38 102 117 102 139 0 13 41 56 53 56
4 0 7 -24 7 -54 0 -137 108 -246 215 -217 38 10 103 78 131 138 14 29 27 53
30 53 2 0 18 -28 34 -62 31 -67 52 -98 65 -98 5 0 16 -7 26 -16 12 -11 38 -16
87 -16 83 0 135 27 178 92 32 49 51 50 69 7 20 -49 73 -97 109 -99 88 -4 138
20 162 78 16 39 27 42 52 15 90 -98 78 -91 158 -91 68 0 75 2 120 37 27 20 56
45 65 56 21 26 39 14 39 -26 0 -27 -10 -40 -62 -82 -96 -77 -233 -218 -256
-264 -27 -52 -31 -171 -7 -191 8 -7 15 -18 15 -24 0 -6 10 -18 23 -26 118 -77
230 -65 323 32 76 81 108 210 102 423 l-3 144 31 33 c36 39 88 107 97 128 4 8
16 29 27 45 11 17 24 39 30 50 5 11 14 27 19 35 5 8 17 33 26 55 10 22 24 52
32 67 7 14 13 35 13 45 0 32 31 51 90 55 51 3 55 1 58 -20 2 -13 -4 -41 -12
-63 -12 -29 -16 -75 -16 -183 0 -168 13 -211 87 -282 46 -45 63 -50 142 -45
35 3 101 53 101 77 0 7 5 16 10 19 15 9 50 -4 50 -20 0 -7 18 -28 40 -45 36
-29 47 -32 109 -32 57 0 76 5 110 26 22 14 48 38 58 53 26 43 55 73 64 67 5
-3 9 -18 9 -33 0 -40 68 -106 116 -114 70 -12 112 11 161 89 10 16 13 17 22 4
6 -8 11 -27 11 -41 0 -15 7 -32 15 -39 16 -13 139 -19 151 -7 4 4 7 39 6 79
-3 105 31 297 69 393 4 11 11 31 15 44 9 32 39 64 56 59 10 -4 12 -34 10 -140
-4 -153 18 -304 52 -350 22 -32 75 -46 115 -32 25 9 26 13 38 134 14 153 47
290 88 370 32 61 39 24 40 -193 0 -158 3 -210 15 -237 42 -97 90 -133 174
-133 59 1 62 2 98 44 21 24 38 49 38 54 0 6 6 21 13 36 17 31 28 121 18 138
-5 7 -19 11 -31 9 -19 -2 -26 -15 -42 -71 -32 -118 -67 -144 -111 -85 -43 57
-57 293 -31 509 5 43 3 49 -29 80 -38 37 -113 65 -146 54 -22 -7 -61 -71 -61
-102 0 -10 -7 -27 -15 -37 -8 -11 -15 -30 -15 -42 0 -12 -7 -38 -15 -57 -8
-20 -15 -49 -15 -64 0 -35 -34 -126 -49 -131 -14 -5 -14 -1 -11 203 2 167 2
170 -22 191 -12 11 -43 28 -67 37 -38 14 -46 15 -64 2 -28 -20 -57 -66 -57
-92 0 -12 -4 -24 -9 -27 -5 -4 -12 -25 -16 -49 -4 -23 -11 -46 -15 -52 -4 -5
-10 -27 -14 -47 -7 -38 -21 -56 -34 -43 -4 4 -7 70 -7 147 l0 139 -55 19 c-92
31 -89 40 -92 -258 -4 -274 -5 -284 -58 -367 -30 -47 -74 -59 -103 -27 -30 33
-41 195 -29 409 11 186 11 188 -11 211 -18 19 -30 22 -77 20 -48 -3 -55 -6
-58 -25 -4 -28 -25 -21 -71 24 -31 30 -40 33 -93 33 -105 0 -171 -62 -231
-215 -20 -51 -37 -239 -26 -279 25 -86 -14 -187 -75 -194 -64 -8 -96 66 -96
220 0 101 9 162 42 280 14 47 -4 93 -43 114 -25 12 -33 12 -71 0 -24 -8 -68
-16 -98 -18 l-55 -3 3 37 c3 30 -2 42 -24 63 -15 14 -36 25 -48 25 -39 0 -93
-46 -112 -95 l-17 -46 31 -45 c35 -49 39 -69 17 -98 -8 -11 -15 -28 -15 -37 0
-10 -6 -30 -14 -46 -8 -15 -36 -72 -63 -127 -31 -63 -56 -102 -71 -109 -30
-14 -35 -6 -23 39 5 22 13 136 16 255 l7 215 -25 17 c-16 10 -46 17 -77 17
-43 0 -50 -3 -50 -19 0 -35 -18 -32 -62 9 -41 38 -45 40 -109 40 -47 0 -70 -4
-79 -15 -7 -8 -18 -15 -24 -15 -15 0 -66 -58 -83 -95 -7 -16 -17 -37 -22 -45
-34 -60 -54 -217 -44 -346 5 -68 4 -73 -28 -123 -29 -43 -38 -51 -65 -51 -39
0 -48 10 -68 79 -18 63 -22 283 -6 441 8 90 8 96 -12 117 -17 18 -32 23 -74
23 -44 0 -54 -4 -68 -25 l-16 -25 -40 40 c-38 38 -43 40 -104 40 -44 0 -67 -5
-76 -15 -7 -8 -16 -15 -21 -15 -19 0 -109 -109 -109 -132 0 -8 -5 -19 -11 -25
-7 -7 -16 -33 -20 -60 -5 -26 -13 -68 -19 -93 -5 -25 -9 -68 -10 -96 0 -92
-85 -234 -138 -234 -27 0 -39 12 -56 55 -14 35 -16 84 -14 340 l3 300 112 -4
111 -3 16 30 c20 39 20 68 0 76 -9 3 -62 6 -119 6 -117 0 -130 7 -114 65 5 17
10 59 11 94 l3 62 -40 16 c-22 9 -61 18 -87 20 -45 5 -48 3 -50 -19z m727
-506 c43 -37 55 -85 55 -220 -1 -163 -33 -264 -99 -311 -52 -38 -88 -23 -127
49 -16 30 -19 58 -19 185 1 169 14 224 69 283 35 37 87 43 121 14z m747 -9
c33 -37 53 -140 44 -232 -18 -179 -33 -226 -87 -279 -88 -86 -169 18 -169 217
0 181 65 321 150 321 27 0 43 -7 62 -27z m1290 -15 l33 -42 0 -161 c-1 -135
-4 -165 -18 -185 -9 -13 -17 -32 -17 -41 0 -28 -79 -99 -109 -99 -32 0 -67 33
-76 73 -4 15 -11 30 -16 33 -5 3 -9 67 -9 142 1 105 5 149 18 187 36 101 66
134 124 135 31 0 41 -6 70 -42z m-1226 -712 c8 -21 -13 -246 -29 -300 -23 -82
-90 -123 -152 -93 -37 18 -50 59 -36 117 12 52 64 132 161 247 38 45 48 51 56
29z"/>
</g>
</svg>
