<?xml version="1.0" standalone="no"?>
<!DOCTYPE svg PUBLIC "-//W3C//DTD SVG 20010904//EN"
 "http://www.w3.org/TR/2001/REC-SVG-20010904/DTD/svg10.dtd">
<svg version="1.0" xmlns="http://www.w3.org/2000/svg"
 width="210.000000pt" height="192.000000pt" viewBox="0 0 210.000000 192.000000"
 preserveAspectRatio="xMidYMid meet">
<metadata>
Created by potrace 1.10, written by Peter Selinger 2001-2011
</metadata>
<g transform="translate(0.000000,192.000000) scale(0.100000,-0.100000)"
fill="#000000" stroke="none">
<path d="M890 1623 c-51 -18 -108 -42 -130 -55 -8 -4 -22 -11 -30 -15 -19 -8
-89 -61 -115 -88 -63 -63 -125 -169 -158 -271 -23 -70 -23 -257 -1 -328 10
-28 23 -63 30 -78 8 -14 14 -31 14 -38 0 -14 77 -115 119 -154 29 -28 31 -34
31 -105 1 -47 6 -83 14 -93 16 -22 79 -24 96 -3 7 8 20 15 30 15 10 0 23 7 30
15 16 20 90 20 137 0 68 -29 263 -11 345 31 14 8 31 14 37 14 21 0 116 63 164
109 57 53 137 154 137 171 0 7 6 24 14 38 34 67 46 131 46 242 0 122 -11 168
-63 277 -52 106 -182 237 -267 269 -8 3 -28 11 -45 18 -81 36 -139 46 -264 45
-87 0 -140 -5 -171 -16z m360 -92 c72 -27 107 -47 165 -91 59 -44 104 -88 105
-102 0 -4 14 -27 30 -51 17 -25 30 -52 30 -61 0 -10 7 -31 16 -47 12 -24 14
-57 12 -157 -4 -115 -12 -163 -39 -212 -4 -8 -18 -34 -29 -57 -26 -52 -131
-150 -194 -181 -25 -13 -48 -27 -51 -33 -4 -5 -20 -9 -36 -9 -17 0 -42 -6 -57
-13 -40 -20 -198 -22 -253 -3 -62 22 -99 20 -153 -9 -26 -14 -52 -22 -58 -19
-6 4 -8 22 -5 42 7 41 -6 69 -63 132 -48 54 -110 151 -110 174 0 9 -7 27 -16
40 -12 20 -14 49 -12 158 2 80 9 147 17 168 8 19 16 40 18 45 11 33 64 111 98
147 56 57 167 128 202 128 10 1 29 7 43 15 33 19 287 16 340 -4z"/>
<path d="M1345 1169 c-33 -28 -71 -60 -85 -72 -14 -13 -37 -30 -52 -40 l-28
-17 -70 52 c-38 29 -70 56 -70 60 0 5 -7 8 -15 8 -9 0 -18 7 -21 15 -8 20 -73
20 -101 0 -12 -8 -36 -39 -53 -68 -49 -82 -53 -90 -82 -128 -16 -20 -28 -40
-28 -44 0 -4 -14 -25 -31 -46 -64 -81 -13 -119 68 -50 27 22 75 63 108 90 33
28 63 51 68 51 11 0 147 -103 147 -112 0 -5 7 -8 15 -8 9 0 18 -7 21 -15 7
-18 65 -20 95 -5 19 11 81 98 105 150 4 8 20 31 36 51 15 20 28 40 28 44 0 4
14 25 31 46 37 47 36 83 -1 87 -18 2 -42 -12 -85 -49z"/>
</g>
</svg>
