<?xml version="1.0" standalone="no"?>
<!DOCTYPE svg PUBLIC "-//W3C//DTD SVG 20010904//EN"
 "http://www.w3.org/TR/2001/REC-SVG-20010904/DTD/svg10.dtd">
<svg version="1.0" xmlns="http://www.w3.org/2000/svg"
 width="210.000000pt" height="192.000000pt" viewBox="0 0 210.000000 192.000000"
 preserveAspectRatio="xMidYMid meet">
<metadata>
Created by potrace 1.10, written by Peter Selinger 2001-2011
</metadata>
<g transform="translate(0.000000,192.000000) scale(0.100000,-0.100000)"
fill="#000000" stroke="none">
<path d="M865 1655 c-16 -8 -38 -14 -47 -15 -27 0 -148 -59 -193 -94 -129 -98
-206 -210 -256 -372 -17 -54 -19 -85 -16 -177 4 -118 18 -177 63 -273 77 -165
237 -299 424 -354 65 -20 281 -18 346 2 228 71 397 242 464 468 20 65 18 281
-2 346 -72 229 -234 392 -462 461 -70 22 -280 27 -321 8z m315 -95 c86 -34
130 -55 130 -62 0 -5 7 -8 15 -8 21 0 165 -144 165 -165 0 -8 3 -15 8 -15 6 0
25 -38 62 -130 20 -49 20 -291 0 -340 -37 -92 -56 -130 -62 -130 -5 0 -8 -7
-8 -15 0 -21 -144 -165 -165 -165 -8 0 -15 -3 -15 -8 0 -7 -44 -28 -130 -62
-56 -22 -270 -25 -328 -4 -73 26 -142 58 -142 66 0 5 -7 8 -15 8 -21 0 -165
144 -165 165 0 8 -3 15 -8 15 -7 0 -31 50 -63 130 -19 48 -19 292 0 340 32 80
56 130 63 130 5 0 8 7 8 15 0 20 144 165 164 165 8 0 16 4 18 8 5 12 86 52
106 52 9 1 28 7 42 15 33 20 268 16 320 -5z"/>
<path d="M1255 1331 c-22 -11 -47 -22 -55 -25 -8 -3 -24 -11 -35 -18 -40 -23
-50 -28 -65 -34 -8 -3 -42 -18 -75 -34 -33 -15 -81 -38 -107 -50 -36 -16 -52
-31 -67 -64 -12 -23 -21 -47 -21 -53 0 -6 -7 -16 -15 -23 -8 -7 -15 -23 -15
-35 0 -12 -7 -28 -15 -35 -8 -7 -15 -20 -15 -30 0 -10 -7 -23 -15 -30 -8 -7
-15 -18 -15 -25 0 -6 -11 -32 -25 -56 -38 -67 -46 -91 -43 -118 3 -24 7 -26
46 -24 24 1 50 7 57 13 20 16 148 80 161 80 6 0 17 7 24 15 7 8 23 15 35 15
12 0 28 7 35 15 7 8 17 15 23 15 6 0 30 9 53 21 31 15 48 32 63 63 12 23 21
47 21 53 0 6 7 16 15 23 8 7 15 20 15 30 0 10 7 23 15 30 8 7 15 23 15 35 0
12 7 28 15 35 8 7 15 20 15 30 0 10 7 23 15 30 8 7 15 21 15 32 0 11 9 31 20
45 32 41 24 93 -14 93 -11 0 -39 -9 -61 -19z m-35 -130 c0 -11 -4 -22 -9 -25
-10 -7 -95 -178 -106 -213 -3 -13 -11 -23 -17 -23 -12 0 -148 131 -148 142 0
7 32 23 100 52 8 4 47 24 85 45 81 45 95 48 95 22z"/>
</g>
</svg>
