<?xml version="1.0" standalone="no"?>
<!DOCTYPE svg PUBLIC "-//W3C//DTD SVG 20010904//EN"
 "http://www.w3.org/TR/2001/REC-SVG-20010904/DTD/svg10.dtd">
<svg version="1.0" xmlns="http://www.w3.org/2000/svg"
 width="186.000000pt" height="180.000000pt" viewBox="0 0 186.000000 180.000000"
 preserveAspectRatio="xMidYMid meet">
<metadata>
Created by potrace 1.10, written by Peter Selinger 2001-2011
</metadata>
<g transform="translate(0.000000,180.000000) scale(0.100000,-0.100000)"
fill="#000000" stroke="none">
<path d="M332 1598 c-9 -9 -12 -180 -12 -709 0 -753 -2 -725 52 -717 15 2 121
102 293 278 149 151 277 275 285 275 8 0 137 -124 285 -276 256 -262 272 -277
305 -275 l35 1 3 704 c1 512 -1 708 -9 717 -16 19 -1218 21 -1237 2z m1160
-660 c2 -321 1 -589 -1 -596 -5 -20 -25 -13 -46 17 -11 16 -118 128 -237 250
-285 292 -232 291 -514 4 -118 -120 -224 -233 -236 -250 -24 -34 -43 -42 -49
-20 -2 6 -3 274 -1 595 l2 582 540 0 540 0 2 -582z"/>
</g>
</svg>
