<?xml version="1.0" standalone="no"?>
<!DOCTYPE svg PUBLIC "-//W3C//DTD SVG 20010904//EN"
 "http://www.w3.org/TR/2001/REC-SVG-20010904/DTD/svg10.dtd">
<svg version="1.0" xmlns="http://www.w3.org/2000/svg"
 width="186.000000pt" height="180.000000pt" viewBox="0 0 186.000000 180.000000"
 preserveAspectRatio="xMidYMid meet">
<metadata>
Created by potrace 1.10, written by Peter Selinger 2001-2011
</metadata>
<g transform="translate(0.000000,180.000000) scale(0.100000,-0.100000)"
fill="#000000" stroke="none">
<path d="M302 1388 c-33 -33 -15 -56 229 -296 133 -130 246 -248 252 -262 5
-14 13 -45 18 -70 4 -25 13 -65 19 -90 7 -25 19 -72 27 -105 8 -33 20 -82 28
-110 30 -112 37 -142 44 -185 4 -25 14 -64 21 -87 11 -37 17 -43 40 -43 33 0
48 16 90 95 6 11 19 34 30 50 11 17 24 39 30 50 6 11 19 34 30 50 11 17 24 39
30 50 6 11 19 34 30 50 11 17 24 39 30 50 6 11 19 34 30 50 11 17 24 39 30 50
6 11 19 34 30 50 11 17 25 42 31 58 6 15 14 27 19 27 4 0 10 8 14 18 3 9 15
31 26 47 10 17 26 44 34 60 20 40 55 100 89 153 15 23 37 59 48 80 11 20 29
51 40 67 10 17 23 39 29 50 20 37 36 63 49 78 7 9 11 28 9 44 l-3 28 -705 3
c-541 2 -709 -1 -718 -10z m1191 -78 c28 0 19 -28 -12 -35 -16 -3 -71 -28
-123 -55 -51 -27 -115 -61 -143 -75 -27 -14 -63 -35 -80 -45 -16 -10 -52 -31
-80 -45 -27 -14 -63 -34 -80 -45 -16 -11 -39 -24 -50 -30 -11 -6 -33 -19 -50
-29 -16 -11 -33 -20 -37 -20 -4 -1 -80 70 -168 156 -89 87 -174 166 -190 178
-30 20 -38 41 -20 47 7 2 902 1 1033 -2z m64 -96 c2 -7 -2 -18 -9 -26 -20 -21
-58 -76 -58 -84 0 -3 -12 -23 -27 -43 -31 -40 -48 -67 -63 -96 -6 -11 -19 -33
-30 -50 -11 -16 -25 -42 -31 -57 -6 -16 -14 -28 -19 -28 -4 0 -10 -8 -14 -17
-3 -10 -15 -31 -26 -48 -11 -16 -25 -41 -30 -55 -6 -13 -14 -27 -18 -30 -4 -3
-16 -23 -27 -45 -11 -22 -32 -58 -46 -80 -57 -87 -119 -204 -119 -224 0 -6
-11 -11 -24 -11 -25 0 -36 21 -36 73 0 30 -23 131 -69 307 -16 59 -31 122 -34
138 -2 12 39 38 156 99 26 14 50 29 53 34 3 5 14 9 25 9 10 0 19 4 19 9 0 5 9
13 21 16 11 4 53 26 92 49 40 23 79 45 87 49 8 4 29 16 45 27 17 11 39 24 50
30 11 5 38 23 60 39 41 30 65 35 72 15z"/>
</g>
</svg>
