<?xml version="1.0" standalone="no"?>
<!DOCTYPE svg PUBLIC "-//W3C//DTD SVG 20010904//EN"
 "http://www.w3.org/TR/2001/REC-SVG-20010904/DTD/svg10.dtd">
<svg version="1.0" xmlns="http://www.w3.org/2000/svg"
 width="222.000000pt" height="70.000000pt" viewBox="0 0 222.000000 70.000000"
 preserveAspectRatio="xMidYMid meet">
<metadata>
Created by potrace 1.10, written by Peter Selinger 2001-2011
</metadata>
<g transform="translate(0.000000,70.000000) scale(0.100000,-0.100000)"
fill="#000000" stroke="none">
<path d="M150 574 c-37 -31 -70 -93 -70 -129 0 -16 12 -39 30 -57 33 -33 48
-32 31 0 -16 31 -13 82 8 128 37 80 41 66 36 -108 -3 -90 -8 -182 -10 -205 -5
-50 2 -53 36 -17 23 25 24 31 27 211 3 194 2 202 -40 203 -9 0 -31 -12 -48
-26z"/>
<path d="M750 560 c0 -39 -1 -40 -35 -40 -28 0 -35 -4 -35 -20 0 -16 7 -20 30
-20 l30 0 0 -70 c0 -48 -6 -81 -17 -103 -16 -30 -18 -30 -21 -9 -2 12 -23 39
-47 59 -41 34 -43 38 -29 54 36 39 -8 78 -48 42 -15 -13 -19 -26 -14 -51 5
-32 -15 -81 -52 -124 -27 -32 -33 -19 -31 74 1 78 -1 93 -17 105 -10 7 -21 13
-25 13 -20 0 -60 -47 -78 -93 l-20 -52 0 66 c-1 53 -5 68 -18 73 -9 4 -20 3
-25 -2 -5 -5 -7 -62 -6 -128 3 -119 3 -119 27 -119 21 0 26 7 36 50 14 58 36
111 59 140 14 19 15 13 16 -75 0 -98 8 -120 40 -120 21 0 60 43 95 104 l29 49
28 -32 c15 -17 28 -40 28 -51 0 -26 -27 -37 -53 -21 -16 11 -22 10 -35 -3 -39
-39 55 -63 118 -31 16 9 37 30 47 48 l17 32 7 -32 c14 -70 60 -84 103 -32 14
17 26 26 26 20 0 -21 40 -51 67 -51 15 0 37 10 50 22 l23 22 16 -22 c19 -27
58 -28 77 -2 l14 20 18 -20 c23 -26 69 -26 95 0 11 11 20 15 20 8 0 -6 -25
-37 -56 -70 -47 -49 -55 -63 -52 -90 4 -42 44 -67 84 -53 46 17 66 55 72 137
4 59 10 81 34 116 16 23 38 63 49 87 13 29 26 45 38 45 16 0 18 -8 13 -72 -4
-64 -1 -76 18 -100 24 -32 55 -36 82 -11 17 15 19 15 36 0 27 -25 70 -21 95 7
l21 24 11 -22 c15 -29 59 -33 78 -6 14 21 14 21 20 0 3 -13 13 -20 30 -20 22
0 25 5 30 60 4 33 14 77 24 97 l17 38 7 -78 c7 -84 16 -101 45 -95 15 2 21 16
26 59 4 31 14 72 22 90 l14 34 1 -73 c1 -96 19 -132 67 -132 27 0 42 18 50 58
8 41 -8 42 -23 2 -25 -67 -47 -22 -46 93 1 72 0 79 -23 94 -34 22 -48 6 -68
-71 -9 -32 -18 -61 -21 -64 -3 -3 -5 25 -5 61 0 57 -3 68 -21 78 -27 14 -39 3
-61 -59 l-16 -47 -1 53 c-1 28 -5 52 -10 52 -5 0 -16 3 -24 6 -13 4 -16 -11
-19 -95 -2 -79 -7 -104 -20 -118 -31 -30 -42 -3 -43 105 0 93 -1 97 -22 100
-13 2 -23 -2 -23 -9 0 -8 -6 -6 -18 4 -59 53 -123 -14 -124 -129 0 -44 -5 -67
-15 -76 -35 -29 -56 62 -33 141 13 48 -1 63 -53 54 -27 -4 -38 -3 -34 4 9 15
-17 35 -36 27 -22 -8 -31 -42 -17 -59 10 -12 6 -28 -18 -80 -17 -36 -32 -65
-34 -65 -2 0 -3 42 -3 92 0 89 -1 93 -22 96 -13 2 -23 -2 -23 -9 0 -8 -6 -6
-18 4 -57 52 -122 -15 -122 -126 0 -32 -6 -61 -15 -73 -15 -19 -15 -19 -31 1
-11 15 -15 42 -13 110 l2 90 -27 3 c-14 2 -26 -2 -26 -8 0 -7 -7 -5 -16 4 -42
43 -108 -8 -119 -92 -8 -60 -30 -112 -49 -112 -21 0 -26 23 -26 131 l0 99 39
0 c25 0 41 5 44 14 5 11 -4 16 -36 18 -41 3 -42 4 -39 37 4 35 -9 51 -40 51
-14 0 -18 -9 -18 -40z m36 -55 c3 -8 3 -19 -1 -25 -10 -16 -35 7 -28 26 7 18
22 18 29 -1z m214 -94 c23 -45 0 -171 -32 -171 -27 0 -38 25 -38 85 0 86 42
138 70 86z m252 -16 c10 -37 1 -102 -18 -132 -45 -71 -87 44 -49 133 19 45 54
45 67 -1z m416 23 c14 -14 16 -107 2 -143 -13 -34 -39 -43 -57 -19 -10 13 -13
38 -11 80 5 81 33 115 66 82z m173 -116 c-1 -26 -7 -51 -12 -57 -8 -7 -9 3 -5
30 3 22 5 51 6 64 0 13 3 21 7 17 4 -3 6 -28 4 -54z m-1509 -7 c-6 -34 -12
-32 -12 6 0 16 4 28 9 25 4 -3 6 -17 3 -31z m958 -30 c0 -8 -4 -15 -10 -15 -5
0 -10 7 -10 15 0 8 5 15 10 15 6 0 10 -7 10 -15z m-42 -192 c-17 -37 -52 -38
-56 -3 -2 17 9 42 30 70 l33 45 3 -42 c2 -24 -3 -55 -10 -70z"/>
</g>
</svg>
